<svg width="44" height="39" viewBox="0 0 44 39" fill="none" xmlns="http://www.w3.org/2000/svg">
<path fill-rule="evenodd" clip-rule="evenodd" d="M26.7168 0.0184133C26.6774 0.0315048 26.6218 0.0594374 26.5932 0.0804971C26.5102 0.141612 26.5416 0.091071 26.0127 1.01461C25.8918 1.22577 25.7149 1.53449 25.6196 1.70065C25.4208 2.04734 25.0938 2.61798 24.8117 3.1105C24.7046 3.29744 24.5414 3.58207 24.4491 3.74305C24.0238 4.48413 23.9313 4.64545 23.7253 5.00499C23.6044 5.21615 23.4275 5.52487 23.3323 5.69103C23.237 5.85719 23.0601 6.16591 22.9391 6.37708C22.8182 6.58824 22.6558 6.87147 22.5783 7.00647C22.1868 7.68853 22.1295 7.79099 22.1126 7.83893C22.1025 7.86745 22.0943 7.92883 22.0943 7.97532C22.0943 8.16935 22.2545 8.34506 22.4726 8.39017C22.5531 8.40682 22.6292 8.39461 22.7144 8.35141C22.7736 8.32137 22.8527 8.2431 23.6157 7.45964C23.9157 7.15155 24.2774 6.78052 24.4194 6.63513C24.5614 6.48974 24.9119 6.13004 25.1984 5.8358C25.4848 5.54155 25.8414 5.17619 25.9907 5.02387C26.14 4.87156 26.5077 4.49486 26.8078 4.18677C27.2949 3.68672 27.8776 3.08922 28.6736 2.27361C28.8187 2.12487 29.0596 1.87846 29.2089 1.72603C29.9606 0.958406 29.9261 1.00124 29.9341 0.82661C29.9403 0.692649 29.9108 0.60398 29.8304 0.514378C29.7361 0.409319 29.6923 0.393207 29.2747 0.310051C28.6631 0.188288 28.0302 0.0962698 27.4168 0.0399639C26.9034 -0.007178 26.8031 -0.010262 26.7168 0.0184133ZM22.5028 0.221948C21.976 0.317163 21.39 0.446794 20.9133 0.573605C20.3896 0.712928 19.677 0.937636 19.5643 0.999014C19.4925 1.03814 19.4167 1.12666 19.387 1.20621C19.376 1.23584 19.3214 1.48383 19.2657 1.7573C19.21 2.03077 19.1284 2.43013 19.0844 2.64475C19.0404 2.85937 18.9471 3.31537 18.877 3.65808C18.8069 4.00079 18.7136 4.45679 18.6696 4.67141C18.6257 4.88603 18.5353 5.32787 18.4687 5.65327C18.4021 5.97867 18.3116 6.42051 18.2676 6.63513C18.2236 6.84975 18.142 7.24869 18.0861 7.52166C17.9572 8.15209 17.9556 8.21078 18.0639 8.34303C18.1261 8.41899 18.2114 8.47025 18.3236 8.49904C18.5247 8.55064 18.6908 8.46272 18.8149 8.23904C18.8568 8.1635 19.2806 7.42314 19.5997 6.86801C19.6773 6.733 19.8413 6.44694 19.9642 6.23232C20.3036 5.63973 20.5592 5.19362 20.7468 4.86652C21.1607 4.14483 21.3132 3.87894 21.5226 3.51332C21.6456 3.29869 21.8208 2.99281 21.912 2.83357C22.0032 2.67433 22.1898 2.34862 22.3266 2.10976C22.4635 1.87091 22.6293 1.58201 22.6952 1.46778C23.0028 0.934312 23.0865 0.780286 23.1005 0.721828C23.1445 0.538094 23.0347 0.32138 22.8561 0.23947C22.7633 0.196936 22.6675 0.192177 22.5028 0.221948ZM33.1041 1.62642C32.9971 1.65521 32.9451 1.69288 32.7905 1.85356C32.7116 1.93562 32.5333 2.11889 32.3943 2.26082C32.2553 2.40275 31.9072 2.75962 31.6207 3.05386C31.3343 3.3481 30.9721 3.71913 30.816 3.87837C30.6599 4.03761 29.9359 4.77967 29.2072 5.52739C28.4784 6.27512 27.6304 7.14463 27.3226 7.45964C26.508 8.29332 24.694 10.154 24.5698 10.2831C24.5113 10.3441 24.4464 10.4234 24.4256 10.4594C24.3918 10.5182 24.388 10.5357 24.3881 10.6318C24.3883 10.7272 24.3926 10.7471 24.4282 10.8155C24.5528 11.0554 24.7813 11.1369 25.0098 11.023C25.0679 10.9941 25.667 10.6628 26.116 10.4114C26.1817 10.3746 26.6766 10.0996 27.2157 9.80013C29.2129 8.69097 29.8957 8.31158 30.0121 8.24638C30.132 8.17917 30.9894 7.70279 32.8084 6.69262C33.3476 6.3932 33.8424 6.11804 33.9081 6.08117C33.9738 6.04429 34.463 5.77243 34.9952 5.47704C35.5275 5.18165 36.011 4.91294 36.0698 4.87989C36.1285 4.84685 36.3286 4.73545 36.5143 4.63232C36.7104 4.52349 36.8729 4.42464 36.9018 4.39669C37.0495 4.25363 37.0686 4.0024 36.9447 3.83431C36.848 3.7033 35.8218 2.98825 35.1523 2.58552C34.4703 2.17525 33.4772 1.65925 33.2948 1.62042C33.2115 1.60269 33.1897 1.60339 33.1041 1.62642ZM15.7287 2.90333C15.6454 2.91985 15.6179 2.93442 15.418 3.06797C14.7784 3.49537 14.0699 4.04194 13.4793 4.56358C13.1378 4.86521 13.0951 4.91752 13.0689 5.06616C13.0575 5.13103 13.0631 5.17054 13.1318 5.50862C13.2186 5.93634 13.428 6.96113 13.5356 7.48482C13.5761 7.68213 13.6635 8.10981 13.7299 8.43521C13.7962 8.7606 13.8733 9.1373 13.9013 9.27231C14.0741 10.1073 14.0657 10.0763 14.1436 10.1627C14.1679 10.1896 14.2206 10.2283 14.2607 10.2486C14.3272 10.2824 14.3447 10.2856 14.4593 10.2852C14.6039 10.2846 14.6668 10.263 14.7546 10.1835C14.8536 10.0939 14.8518 10.1 15.0187 9.2786C15.0525 9.11244 15.1174 8.79522 15.163 8.57367C15.2086 8.35213 15.2991 7.91029 15.3642 7.59181C15.4293 7.27334 15.5198 6.8315 15.5653 6.60995C15.6752 6.07488 15.8726 5.11001 15.9491 4.73435C15.9829 4.56819 16.0589 4.19744 16.1179 3.91047C16.2281 3.3744 16.2391 3.2855 16.2068 3.19377C16.1379 2.99814 15.9195 2.86551 15.7287 2.90333ZM39.1615 6.21262C39.1125 6.2276 39.0573 6.25733 38.4011 6.62225C38.0624 6.81061 37.3385 7.21269 36.7924 7.51577C36.2464 7.81884 35.7572 8.09089 35.7053 8.12032C35.6535 8.14975 35.4442 8.26607 35.2403 8.37884C35.0364 8.4916 34.7508 8.65022 34.6056 8.73135C34.4605 8.81247 34.2342 8.93837 34.1029 9.01112C33.7011 9.23365 32.1624 10.0884 32.0355 10.1596C31.882 10.2456 31.3733 10.5281 31.2186 10.6132C31.0916 10.6831 30.0619 11.2557 29.8613 11.368C29.7956 11.4048 29.5863 11.521 29.3962 11.6263C29.2062 11.7315 28.9969 11.8476 28.9312 11.8842C28.8656 11.9208 28.6874 12.02 28.5353 12.1046C28.3833 12.1892 28.2051 12.2884 28.1395 12.3251C28.0738 12.3618 27.8504 12.4853 27.643 12.5996C27.2147 12.8358 27.1486 12.8792 27.0959 12.9589C27.0442 13.037 27.0293 13.1012 27.0375 13.211C27.0467 13.3347 27.0979 13.44 27.1898 13.5241C27.268 13.5957 27.3408 13.6221 27.4545 13.6202C27.5204 13.619 28.4988 13.3825 29.5596 13.1113C29.6668 13.0839 30.8884 12.7785 32.2743 12.4326C33.6602 12.0868 35.8828 11.532 37.2135 11.1997C38.5441 10.8674 40.0569 10.4898 40.5754 10.3605C41.0938 10.2312 41.5488 10.1139 41.5864 10.0998C41.6785 10.0654 41.7634 9.98365 41.8085 9.88577C41.8398 9.81784 41.8446 9.79292 41.8437 9.7003C41.8424 9.56953 41.8371 9.55681 41.6455 9.2247C41.0946 8.26975 40.5045 7.42355 39.7948 6.57088C39.5872 6.32135 39.524 6.26168 39.4299 6.22644C39.3597 6.20012 39.225 6.19318 39.1615 6.21262ZM10.4983 8.11292C10.4453 8.1266 10.3569 8.17296 10.3195 8.20665C10.2514 8.26791 9.85149 8.91166 9.58314 9.39189C9.44327 9.64218 9.27886 9.95445 9.15975 10.196L9.04258 10.4336V10.5547C9.04258 10.7223 9.06826 10.7683 9.28711 10.9931C9.45673 11.1673 10.2699 12.0002 10.8454 12.5892C11.1685 12.9199 11.255 12.9903 11.3576 13.0057C11.5993 13.042 11.8406 12.8588 11.8597 12.6246C11.8659 12.549 11.8658 12.5486 11.6454 11.4752C11.6006 11.2571 11.5101 10.8153 11.4443 10.4933C11.3785 10.1714 11.2874 9.72673 11.2419 9.50518C11.1964 9.28363 11.1286 8.95226 11.0912 8.76879C11.0162 8.40044 11.001 8.34802 10.9487 8.27671C10.9026 8.214 10.8637 8.18385 10.7781 8.1446C10.703 8.11017 10.5681 8.09489 10.4983 8.11292ZM41.2477 12.9284C40.4079 13.1391 38.7197 13.5613 37.4962 13.8666C36.2728 14.1719 35.1727 14.4468 35.0518 14.4776C34.9308 14.5083 33.8308 14.7829 32.6073 15.0879C31.3838 15.3928 30.2838 15.6675 30.1629 15.6984C30.0419 15.7293 29.5075 15.8629 28.9752 15.9954C28.443 16.1278 27.9781 16.2472 27.9421 16.2607C27.8491 16.2955 27.7571 16.3824 27.7271 16.4637C27.6919 16.559 27.6838 16.6371 27.6998 16.7259C27.729 16.8866 27.8148 17.0001 27.9482 17.054L28.0201 17.0831H35.8373H43.6545L43.7298 17.0528C43.8325 17.0114 43.9361 16.9074 43.9729 16.8088C44.0085 16.7134 44.0075 16.663 43.9619 16.2613C43.8398 15.1864 43.6162 14.1029 43.2984 13.0462C43.2574 12.9099 43.2117 12.7788 43.1969 12.7548C43.1576 12.691 43.0764 12.6222 42.9979 12.5862C42.855 12.5207 42.9354 12.505 41.2477 12.9284ZM7.99095 13.8429C7.90333 13.8742 7.82078 13.945 7.77731 14.0261C7.71063 14.1504 7.53123 15.0441 7.4277 15.7677C7.31572 16.5502 7.30545 16.7247 7.36448 16.8415C7.40411 16.9199 7.49776 17.0069 7.58825 17.0494L7.66011 17.0831L9.074 17.0868C10.0618 17.0894 10.5122 17.0864 10.5684 17.0767C10.7196 17.0507 10.8107 16.9818 10.8802 16.841C10.9235 16.7532 10.9277 16.7355 10.9274 16.6432C10.9271 16.5619 10.9209 16.5294 10.8964 16.4789C10.8617 16.4076 10.7524 16.293 9.33605 14.8425C8.29591 13.7773 8.35101 13.8253 8.16283 13.8201C8.08818 13.818 8.04391 13.8239 7.99095 13.8429ZM27.7892 19.7465C27.6627 19.7714 27.55 19.8615 27.4942 19.9824C27.4552 20.067 27.4549 20.2793 27.4938 20.3634C27.5273 20.436 27.595 20.5045 27.6717 20.5434C27.7044 20.56 27.929 20.6225 28.1709 20.6824C28.4128 20.7422 28.6673 20.8061 28.7364 20.8243C28.8056 20.8425 28.9385 20.8754 29.0318 20.8975C29.1251 20.9196 29.2948 20.9613 29.4088 20.9904C29.9112 21.1181 30.1857 21.1868 31.5014 21.5142C32.2686 21.7052 32.9812 21.8834 33.0849 21.9104C33.1886 21.9373 33.3328 21.9731 33.4054 21.9899C33.478 22.0067 33.6307 22.0441 33.7447 22.073C33.8588 22.102 34.0624 22.1533 34.1972 22.187C34.332 22.2208 34.5554 22.2769 34.6936 22.3117C34.8318 22.3466 35.5727 22.5313 36.34 22.7222C37.1073 22.9132 37.8312 23.0945 37.9487 23.1252C38.0662 23.1558 38.1906 23.1868 38.2252 23.194C38.2597 23.2013 38.3983 23.2351 38.5331 23.2693C38.6679 23.3035 38.9026 23.3625 39.0546 23.4006C39.2067 23.4386 39.4443 23.4983 39.5825 23.5333C39.7207 23.5683 39.8621 23.6029 39.8967 23.6103C39.9313 23.6177 40.0557 23.6487 40.1732 23.6792C40.5556 23.7783 42.6085 24.2879 42.7143 24.31C42.8106 24.3301 42.8227 24.3301 42.9017 24.3106C43.0085 24.2842 43.0815 24.2415 43.1381 24.1722C43.1947 24.1032 43.2051 24.0773 43.2903 23.797C43.6145 22.7297 43.848 21.5947 43.9687 20.5008C43.9859 20.345 44 20.188 44 20.1519C44.0003 19.9678 43.8557 19.7955 43.6626 19.75C43.604 19.7362 42.2264 19.7335 35.7179 19.7345C31.3873 19.7351 27.8194 19.7405 27.7892 19.7465ZM0 28.7018V36.2357H1.06198H2.12397V32.8495V29.4634H2.32345H2.52291L2.56304 29.6176C2.6071 29.7869 2.67317 30.0372 2.78821 30.4704C2.82957 30.6262 2.89537 30.8754 2.93443 31.0243C3.00921 31.3092 3.06192 31.5089 3.19859 32.025C3.32112 32.4878 3.38321 32.7232 3.46254 33.0258C3.50156 33.1746 3.56379 33.4097 3.60084 33.5482C3.63788 33.6866 3.70296 33.933 3.74545 34.0957C3.78794 34.2584 3.85009 34.4935 3.88353 34.6181C3.91699 34.7428 3.9763 34.9665 4.01533 35.1154C4.05437 35.2642 4.11097 35.4795 4.14112 35.5937C4.17126 35.7079 4.21364 35.8694 4.23528 35.9525C4.25694 36.0355 4.28318 36.1333 4.29361 36.1696L4.31256 36.2357H5.39251C5.98648 36.2357 6.47245 36.2327 6.47245 36.229C6.47245 36.2254 6.4352 36.0795 6.38968 35.9049C6.34416 35.7303 6.27678 35.4713 6.23995 35.3294C6.20311 35.1874 6.13816 34.9382 6.09562 34.7755C6.05307 34.6128 5.96241 34.2644 5.89415 34.0013C5.82588 33.7382 5.73899 33.404 5.70106 33.2586C5.53689 32.6293 5.47054 32.3745 5.35208 31.918C5.2158 31.393 5.11431 31.003 5.01628 30.6278C4.9819 30.4962 4.89422 30.1592 4.82141 29.8788C4.74861 29.5984 4.65193 29.2274 4.60659 29.0543C4.56124 28.8812 4.50327 28.6565 4.47776 28.5549L4.43137 28.3703L4.51533 28.0325C4.56152 27.8468 4.76376 27.032 4.96479 26.222C6.26635 20.977 6.20982 21.2044 6.21729 21.1849C6.2227 21.1707 6.05336 21.1679 5.199 21.1679C4.23401 21.1679 4.17383 21.1692 4.16737 21.1899C4.1636 21.2021 4.06188 21.5972 3.94133 22.068C3.8208 22.5387 3.69297 23.0372 3.65727 23.1757C3.62158 23.3142 3.57356 23.5011 3.55056 23.5911C3.46617 23.9213 2.89076 26.1652 2.84043 26.3604C2.81186 26.4712 2.75417 26.695 2.71222 26.8577C2.67028 27.0204 2.61515 27.2356 2.5897 27.336L2.54345 27.5185L2.3337 27.522L2.12397 27.5254V24.3467V21.1679H1.06198H0V28.7018ZM7.44018 28.7018V36.2357H9.96632H12.4925V37.6078V38.9799H13.5544H14.6164V36.5945V34.209H14.1451H13.6738V27.6885V21.1679H12.6119H11.5499V27.6885V34.209H10.557H9.56415V27.6885V21.1679H8.50216H7.44018V28.7018ZM27.2416 23.2523C27.0689 23.3156 26.9478 23.5157 26.9608 23.716C26.973 23.9016 27.0356 23.9663 27.3936 24.1629C27.5377 24.2421 27.6924 24.3277 27.7373 24.3533C27.7822 24.379 27.9858 24.4921 28.1897 24.6048C28.3936 24.7175 28.6566 24.8638 28.7741 24.9298C28.8916 24.9958 29.0189 25.0665 29.0569 25.0868C29.0949 25.1072 29.1684 25.1479 29.2203 25.1774C29.2721 25.2068 29.4814 25.3229 29.6853 25.4353C29.8892 25.5478 30.0985 25.6639 30.1503 25.6933C30.3008 25.7786 30.5579 25.9219 30.9295 26.1276C31.352 26.3615 31.4984 26.4428 31.6208 26.5117C31.6726 26.5409 31.831 26.6286 31.9727 26.7066C32.1144 26.7846 32.2727 26.8725 32.3246 26.9018C32.3764 26.9311 32.498 26.999 32.5948 27.0527C32.6915 27.1064 32.8131 27.1743 32.865 27.2038C32.9168 27.2332 33.0752 27.321 33.2169 27.3989C33.3586 27.4769 33.5226 27.5677 33.5813 27.6009C33.6401 27.634 33.8409 27.746 34.0275 27.8497C34.2141 27.9534 34.3923 28.0524 34.4234 28.0697C34.4545 28.087 34.6355 28.1873 34.8256 28.2926C35.0156 28.3979 35.2249 28.5141 35.2906 28.5508C35.3562 28.5874 35.5655 28.7036 35.7556 28.8089C36.0707 28.9834 36.246 29.0811 36.5474 29.2501C36.6061 29.283 36.8097 29.396 36.9998 29.5012C37.1899 29.6065 37.3991 29.7225 37.4648 29.7591C37.6236 29.8477 38.0222 30.0694 38.0932 30.1087C38.4645 30.3141 38.8621 30.535 38.9478 30.5836C39.0732 30.6547 39.1278 30.6717 39.2317 30.6717C39.3292 30.6718 39.4083 30.6479 39.4795 30.5967C39.6356 30.4844 40.3946 29.5217 40.855 28.8519C41.2041 28.344 41.7246 27.497 41.7902 27.3297C41.8697 27.1273 41.7877 26.8913 41.6035 26.7921C41.5621 26.7699 41.2539 26.6876 40.6256 26.5312C40.121 26.4056 39.6233 26.2806 39.5197 26.2535C39.416 26.2264 39.3029 26.1983 39.2683 26.191C39.2337 26.1838 39.0952 26.1499 38.9604 26.1157C38.6069 26.026 38.2639 25.9402 37.8481 25.8374C37.6477 25.7879 37.3988 25.7255 37.2951 25.6988C37.1915 25.6721 36.6033 25.5252 35.9881 25.3722C35.3729 25.2192 34.7621 25.0665 34.6308 25.0328C34.4994 24.9991 34.3722 24.9677 34.348 24.963C34.3238 24.9583 34.1994 24.9275 34.0715 24.8945C33.9436 24.8615 33.8022 24.8261 33.7573 24.8157C33.7124 24.8053 33.5823 24.7731 33.4682 24.7442C32.9887 24.6226 32.7147 24.554 31.6522 24.2898C31.037 24.1368 30.4375 23.9867 30.32 23.9562C30.2025 23.9257 30.078 23.8947 30.0435 23.8873C29.9836 23.8745 29.7384 23.8131 29.2831 23.6969C29.1691 23.6678 29.0107 23.6287 28.9312 23.6101C28.8517 23.5915 28.6934 23.5525 28.5793 23.5235C28.4653 23.4944 28.2617 23.443 28.1269 23.4092C27.9921 23.3754 27.7791 23.3218 27.6536 23.29C27.4119 23.2289 27.3266 23.2211 27.2416 23.2523ZM24.6546 25.7886C24.5104 25.8234 24.3834 25.9447 24.3308 26.0978C24.2992 26.1897 24.2997 26.2727 24.3322 26.3597C24.3643 26.4458 24.41 26.4958 25.098 27.1993C25.3849 27.4926 25.9786 28.1007 26.4173 28.5508C27.3763 29.5345 28.1864 30.3641 28.6051 30.7913C28.7747 30.9644 29.1565 31.3554 29.4534 31.66C29.7503 31.9646 30.3301 32.5594 30.7418 32.9817C31.1536 33.404 31.7881 34.0555 32.152 34.4293C32.5158 34.8032 32.8406 35.1303 32.8738 35.1562C32.9586 35.2225 33.0338 35.2449 33.1517 35.239C33.2402 35.2345 33.265 35.2264 33.4482 35.142C34.3939 34.7065 35.485 34.0675 36.3714 33.4301C36.8081 33.1161 36.8744 33.0608 36.9222 32.9699C36.9521 32.9132 36.9558 32.8924 36.9558 32.7803C36.9558 32.5624 36.9002 32.4852 36.6367 32.3375C36.5426 32.2848 36.4176 32.2147 36.3588 32.1818C36.3001 32.1488 36.0965 32.0357 35.9064 31.9305C35.7163 31.8253 35.507 31.7092 35.4414 31.6724C35.3364 31.6136 34.2837 31.0278 34.1343 30.9451C33.5418 30.6168 33.3671 30.5199 33.2671 30.4642C32.8228 30.2165 32.5614 30.0712 32.2366 29.8915C32.0327 29.7787 31.8178 29.6593 31.759 29.6263C31.7002 29.5933 31.4203 29.4377 31.1369 29.2807C30.8535 29.1236 30.5792 28.9711 30.5273 28.9416C30.4249 28.8835 30.3068 28.8178 29.9492 28.62C29.8213 28.5493 29.6602 28.4599 29.591 28.4215C29.5219 28.383 29.4173 28.3248 29.3585 28.2922C29.2998 28.2595 29.181 28.1931 29.0946 28.1446C29.0082 28.0961 28.8272 27.9955 28.6924 27.921C28.382 27.7495 28.0296 27.5541 27.8755 27.468C27.7477 27.3966 26.6628 26.7929 26.5685 26.7407C26.1857 26.5287 25.7973 26.3133 25.7013 26.2598C25.6356 26.2232 25.4773 26.135 25.3494 26.0637C25.2215 25.9925 25.083 25.9151 25.0415 25.8917C24.864 25.7917 24.7585 25.7636 24.6546 25.7886ZM18.2577 28.3555C18.0853 28.3864 17.9433 28.5183 17.9087 28.6799C17.8917 28.7594 17.8937 28.7729 18.002 29.2997C18.0469 29.5178 18.1374 29.9597 18.2032 30.2816C18.2691 30.6035 18.3601 31.0482 18.4056 31.2697C18.4511 31.4913 18.545 31.9501 18.6143 32.2894C18.6836 32.6286 18.7734 33.0676 18.814 33.2649C18.88 33.5859 19.0004 34.175 19.2099 35.2002C19.2484 35.3889 19.2908 35.5685 19.304 35.5995C19.3342 35.67 19.4199 35.7643 19.4831 35.7966C19.5401 35.8257 20.1638 36.031 20.4668 36.1203C20.9721 36.2693 21.5069 36.4004 22.0755 36.5147C22.5312 36.6063 22.6125 36.6142 22.7132 36.576C22.807 36.5405 22.9122 36.4444 22.9564 36.354C22.9955 36.274 23.0097 36.1445 22.9881 36.0648C22.9756 36.0185 22.8004 35.7061 22.2032 34.6653C22.0949 34.4767 21.9195 34.1708 21.8133 33.9856C21.7071 33.8004 21.5422 33.5129 21.4469 33.3468C21.2295 32.968 21.0652 32.6813 20.7183 32.0754C20.5676 31.8123 20.3809 31.4866 20.3033 31.3516C20.2257 31.2166 20.0746 30.9532 19.9675 30.7662C19.4863 29.9262 19.2655 29.5409 19.1378 29.3186C19.0622 29.1871 18.9316 28.9584 18.8475 28.8104C18.6855 28.5252 18.6085 28.4241 18.5215 28.3824C18.4588 28.3525 18.3416 28.3405 18.2577 28.3555ZM22.3255 28.4868C22.154 28.5405 22.0193 28.716 22.019 28.8859C22.0189 28.9942 22.0357 29.0389 22.1547 29.2466C22.6686 30.1432 22.9727 30.6736 23.2586 31.1722C23.5767 31.7268 23.8186 32.1488 24.0649 32.5789C24.3937 33.1528 24.5311 33.3927 25.1546 34.4797C25.2459 34.6389 25.4325 34.9646 25.5693 35.2035C25.7061 35.4423 25.8943 35.7709 25.9876 35.9336C26.081 36.0963 26.2109 36.3229 26.2764 36.4371C26.4089 36.6683 26.4667 36.7373 26.5685 36.7859C26.6891 36.8435 26.7978 36.841 27.5802 36.7634C28.3738 36.6846 29.4984 36.4958 29.6265 36.4199C29.6992 36.3769 29.7651 36.305 29.807 36.2231C29.8381 36.1623 29.8424 36.14 29.8424 36.0406C29.8424 35.8812 29.8209 35.8427 29.6106 35.6254C29.3977 35.4054 26.8736 32.8158 26.5064 32.4406C26.3573 32.2883 26.1051 32.0306 25.9457 31.8678C25.7864 31.705 25.1812 31.0847 24.6008 30.4893C24.0204 29.8939 23.359 29.2154 23.131 28.9815C22.7189 28.5588 22.6675 28.5119 22.5857 28.4837C22.5303 28.4645 22.3912 28.4662 22.3255 28.4868Z" fill="#FBFBFB"/>
</svg>
